# xmcd
#
# Track frame offsets:
#	150
#	2312
#	25900
#	47391
#	70888
#	97260
#	118069
#	139091
#	162789
#	180072
#	200525
#	224505
#	242941
#	264874
#	288996
#	311222
#
# Disc length: 4444 seconds
# Revision: 0
# Processed by: cddbd v1.5.2PL0 Copyright (c) Steve Scherf et al.
# Submitted via: dBpowerAMP V12.0
#
DISCID=dd115a10
DTITLE=Getto Gorillaz - Casualties of War
DYEAR=2000
DGENRE=Down South Rap
TTITLE0=Intro
TTITLE1=Casualties
TTITLE2=Hit Tha Dirt
TTITLE3=On My Corner
TTITLE4=Some Hot One's
TTITLE5=Can I Ball
TTITLE6=Hard Hitters
TTITLE7=Bleed Like Us
TTITLE8=Pandemonium
TTITLE9=Drama In My City
TTITLE10=Crazy Court 2
TTITLE11=Blood Hound
TTITLE12=You Didn't Know
TTITLE13=Think It's A Game
TTITLE14=Gorilla Warfare
TTITLE15=Casualties(Radio Version)
EXTD=
EXTT0=
EXTT1=
EXTT2=
EXTT3=
EXTT4=
EXTT5=
EXTT6=
EXTT7=
EXTT8=
EXTT9=
EXTT10=
EXTT11=
EXTT12=
EXTT13=
EXTT14=
EXTT15=
PLAYORDER=
